:SAMPLES-PER-SECOND 30
:FULLY-SPECIFIED
:DEGREES
1
root  71.4003 40.5165 -30.7178 170.561 -85.446 -169.117
RightUpLeg  -1.5982 -7.25244 -5.59669
RightLeg  1.69153 2.2627 2.90334
RightFoot  0.0832259 -0.218802 2.16781
RightToes  -1.74624e-010 0 -3.6325e-017
Spine  -2.11809 -0.243009 0.0170417
Spine1  6.67446 -0.406065 0.424533
HEad  -2.95024 2.35508 -0.399325
LeftShoulder1  0.542894 0.443793 -10.2705
LeftArm  -17.1001 9.86526 -1.25743
LeftForeArm  4.81109 -0.422455 -1.66612
LeftHand  -0.244104 0.0205437 5.32207
RightShoulder  0.454116 -0.620278 8.27874
RightArm  -18.9431 0.671586 0.526478
RightForeArm  -2.46848 0.846796 4.00736
RightHand  -0.823057 2.46225 -12.4256
LeftUpLeg  0.760461 6.16357 4.58006
LeftLeg  2.20053 11.4366 -3.90274
LeftFoot  -3.35562 0.0324652 -0.170659
LeftToes  1.71891e-010 -1.5102e-010 2.10556e-011
2
root  71.3954 40.5163 -30.7147 170.624 -85.43 -169.182
RightUpLeg  -1.5959 -7.26431 -5.60394
RightLeg  1.70712 2.26286 2.90054
RightFoot  0.0626126 -0.214499 2.10105
RightToes  -1.74624e-010 0 -3.6325e-017
Spine  -2.12891 -0.26913 0.0310612
Spine1  6.71429 -0.437251 0.439498
HEad  -3.80137 2.23182 -0.622886
LeftShoulder1  0.546388 0.445202 -10.4041
LeftArm  -17.0564 9.87743 -1.08803
LeftForeArm  4.79314 -0.423197 -1.67554
LeftHand  -0.244104 0.0205437 5.32207
RightShoulder  0.494443 -0.364526 8.2821
RightArm  -18.9845 0.56473 0.355477
RightForeArm  -3.135 0.658105 3.99414
RightHand  -0.815565 2.19707 -12.6215
LeftUpLeg  0.786524 6.1813 4.59008
LeftLeg  2.17574 11.4237 -3.93329
LeftFoot  -3.37005 0.0338704 -0.192497
LeftToes  1.71891e-010 -1.5102e-010 2.10556e-011
3
root  71.387 40.5151 -30.7076 170.778 -85.4527 -169.323
RightUpLeg  -1.62791 -7.27773 -5.62324
RightLeg  1.78011 2.26816 2.8907
RightFoot  -0.0195708 -0.211704 2.0577
RightToes  -1.74624e-010 0 -3.6325e-017
Spine  -2.22934 -0.297469 0.130806
Spine1  6.87762 -0.447789 0.345638
HEad  -4.54882 2.06318 -0.787766
LeftShoulder1  0.567383 0.346597 -10.53
LeftArm  -17.0534 9.88169 -0.917616
LeftForeArm  4.68779 -0.422389 -1.67143
LeftHand  -0.244104 0.0205437 5.32207
RightShoulder  0.533741 -0.114844 8.28345
RightArm  -18.9673 0.387343 0.19834
RightForeArm  -4.32791 0.482649 4.02387
RightHand  -0.807496 1.86734 -13.0593
LeftUpLeg  0.784439 6.18342 4.57629
LeftLeg  2.17584 11.359 -3.95795
LeftFoot  -3.41358 0.0371026 -0.242727
LeftToes  1.71891e-010 -1.5102e-010 2.10556e-011
4
root  71.3787 40.512 -30.6973 170.91 -85.488 -169.478
RightUpLeg  -1.61518 -7.32124 -5.67587
RightLeg  1.84022 2.30625 2.9077
RightFoot  -0.0740659 -0.216723 2.13556
RightToes  -1.74624e-010 0 -3.6325e-017
Spine  -2.33883 -0.305186 0.303046
Spine1  7.13151 -0.417487 0.153396
HEad  -4.28391 2.28241 -0.805347
LeftShoulder1  0.590966 0.218465 -10.5583
LeftArm  -17.2226 9.85741 -0.949602
LeftForeArm  4.72389 -0.474253 -1.61134
LeftHand  -0.244104 0.0205437 5.32207
RightShoulder  0.536851 -0.0856088 8.23409
RightArm  -19.0101 0.242689 0.236207
RightForeArm  -4.80585 0.568631 4.03948
RightHand  -0.802224 1.79227 -13.1058
LeftUpLeg  0.798096 6.15479 4.53052
LeftLeg  2.21941 11.3529 -3.93504
LeftFoot  -3.45488 0.0351693 -0.212682
LeftToes  1.71891e-010 -1.5102e-010 2.10556e-011
5
root  71.3667 40.5084 -30.6845 170.799 -85.4799 -169.454
RightUpLeg  -1.48893 -7.41263 -5.76365
RightLeg  1.82684 2.41046 2.99482
RightFoot  -0.0819787 -0.225019 2.26427
RightToes  -1.74624e-010 0 -3.6325e-017
Spine  -2.36004 -0.344505 0.45362
Spine1  7.40893 -0.432266 -0.000538285
HEad  -4.0998 2.4911 -0.920274
LeftShoulder1  0.588249 0.240317 -10.5983
LeftArm  -17.6929 9.94109 -1.18177
LeftForeArm  5.10795 -0.757016 -1.43989
LeftHand  -0.244104 0.0205437 5.32207
RightShoulder  0.515332 -0.221185 8.22642
RightArm  -19.3991 0.397575 0.431453
RightForeArm  -4.09509 0.784893 3.92465
RightHand  -0.774204 1.74425 -12.742
LeftUpLeg  0.889497 6.16838 4.52204
LeftLeg  2.27949 11.3819 -3.92294
LeftFoot  -3.51496 0.0310629 -0.148867
LeftToes  1.71891e-010 -1.5102e-010 2.10556e-011
6
root  71.352 40.5008 -30.672 170.297 -85.4234 -169.014
RightUpLeg  -1.46034 -7.40439 -5.76841
RightLeg  1.98933 2.49329 3.01776
RightFoot  -0.308405 -0.23153 2.37874
RightToes  -1.74624e-010 0 -3.6325e-017
Spine  -2.24717 -0.437362 0.522153
Spine1  7.5296 -0.541831 0.00567621
HEad  -3.95986 2.73922 -1.0422
LeftShoulder1  0.57584 0.351086 -10.8539
LeftArm  -18.518 10.3793 -1.52563
LeftForeArm  5.74349 -1.55631 -1.14873
LeftHand  -0.244104 0.0205437 5.32207
RightShoulder  0.493537 -0.391359 8.40294
RightArm  -20.158 0.891353 0.775384
RightForeArm  -3.45406 0.863638 3.69967
RightHand  -0.789424 1.67478 -13.1065
LeftUpLeg  0.950354 6.31978 4.63832
LeftLeg  2.4187 11.2209 -4.00857
LeftFoot  -3.70582 0.0422374 -0.322525
LeftToes  1.71891e-010 -1.5102e-010 2.10556e-011
7
root  71.35 40.4817 -30.6683 169.576 -85.2782 -168.319
RightUpLeg  -1.8071 -7.07113 -5.52903
RightLeg  2.76534 2.26814 2.73886
RightFoot  -1.04145 -0.23781 2.56021
RightToes  -1.74624e-010 0 -3.6325e-017
Spine  -1.84134 -0.476311 0.546305
Spine1  7.25071 -0.634762 0.183374
HEad  -3.72052 2.94089 -1.26529
LeftShoulder1  0.604066 0.291528 -11.4442
LeftArm  -19.7268 11.2923 -2.11621
LeftForeArm  6.85153 -3.24429 -0.795123
LeftHand  -0.244104 0.0205437 5.32207
RightShoulder  0.493648 -0.454289 8.77128
RightArm  -20.9888 1.1613 1.40668
RightForeArm  -4.27338 1.12313 3.53697
RightHand  -0.945171 2.0621 -14.8285
LeftUpLeg  0.866518 6.61273 4.8826
LeftLeg  2.82192 10.8991 -4.14711
LeftFoot  -4.09526 0.0683649 -0.728573
LeftToes  1.71891e-010 -1.5102e-010 2.10556e-011
8
root  71.3693 40.4478 -30.6858 169.084 -84.9641 -168.009
RightUpLeg  -2.38145 -6.50385 -5.08909
RightLeg  4.22687 1.36639 2.12985
RightFoot  -2.20724 -0.243263 2.85757
RightToes  -1.74624e-010 0 -3.6325e-017
Spine  -0.889541 -0.346232 0.61582
Spine1  6.5349 -0.551776 0.375992
HEad  -3.37426 2.92829 -1.63221
LeftShoulder1  0.696518 -0.0520943 -12.3304
LeftArm  -21.3662 12.6072 -3.32332
LeftForeArm  9.26184 -6.16319 -0.473126
LeftHand  -0.244104 0.0205437 5.32207
RightShoulder  0.543764 -0.267531 9.45964
RightArm  -21.5201 0.520836 2.28515
RightForeArm  -6.19759 2.54989 3.64332
RightHand  -1.22951 3.15053 -16.8473
LeftUpLeg  0.772962 6.93954 5.16337
LeftLeg  3.60802 10.7751 -4.16996
LeftFoot  -4.64488 0.0830592 -0.95695
LeftToes  1.71891e-010 -1.5102e-010 2.10556e-011
